<svg width="28" height="28" viewBox="0 0 28 28" fill="none" xmlns="http://www.w3.org/2000/svg">
<g clip-path="url(#clip0_4_10394)">
<path fill-rule="evenodd" clip-rule="evenodd" d="M14.8249 18.3248C14.6061 18.5436 14.3094 18.6664 14.0001 18.6664C13.6907 18.6664 13.394 18.5436 13.1752 18.3248L6.57541 11.725C6.46398 11.6174 6.3751 11.4887 6.31396 11.3463C6.25281 11.204 6.22063 11.0509 6.21928 10.896C6.21794 10.7411 6.24746 10.5874 6.30612 10.4441C6.36478 10.3007 6.45141 10.1704 6.56095 10.0609C6.67049 9.95134 6.80075 9.86472 6.94413 9.80605C7.08751 9.74739 7.24113 9.71788 7.39604 9.71922C7.55095 9.72057 7.70404 9.75275 7.84638 9.8139C7.98872 9.87504 8.11745 9.96392 8.22507 10.0753L14.0001 15.8503L19.7751 10.0753C19.9951 9.86283 20.2898 9.74524 20.5957 9.74789C20.9016 9.75055 21.1942 9.87325 21.4105 10.0896C21.6268 10.3059 21.7495 10.5985 21.7522 10.9044C21.7549 11.2103 21.6373 11.505 21.4247 11.725L14.8249 18.3248Z" fill="#0B0B0B"/>
</g>
<defs>
<clipPath id="clip0_4_10394">
<rect width="28" height="28" fill="white"/>
</clipPath>
</defs>
</svg>
