<svg width="16" height="16" viewBox="0 0 16 16" fill="none" xmlns="http://www.w3.org/2000/svg">
<g id="mdi:transit-connection-variant">
<path id="Vector" d="M11.75 7.375H9.7625C9.5 6.65 8.8125 6.125 8 6.125C7.1875 6.125 6.5 6.65 6.2375 7.375H4.25C4.04375 7.375 3 7.3125 3 6.125V5.5C3 4.35625 3.9625 4.25 4.25 4.25H10.6125C10.875 4.975 11.5625 5.5 12.375 5.5C12.8723 5.5 13.3492 5.30246 13.7008 4.95083C14.0525 4.59919 14.25 4.12228 14.25 3.625C14.25 3.12772 14.0525 2.65081 13.7008 2.29917C13.3492 1.94754 12.8723 1.75 12.375 1.75C11.5625 1.75 10.875 2.275 10.6125 3H4.25C3.24375 3 1.75 3.6625 1.75 5.5V6.125C1.75 7.9625 3.24375 8.625 4.25 8.625H6.2375C6.5 9.35 7.1875 9.875 8 9.875C8.8125 9.875 9.5 9.35 9.7625 8.625H11.75C11.9563 8.625 13 8.6875 13 9.875V10.5C13 11.6438 12.0375 11.75 11.75 11.75H5.3875C5.125 11.025 4.4375 10.5 3.625 10.5C3.12772 10.5 2.65081 10.6975 2.29917 11.0492C1.94754 11.4008 1.75 11.8777 1.75 12.375C1.75 12.8723 1.94754 13.3492 2.29917 13.7008C2.65081 14.0525 3.12772 14.25 3.625 14.25C4.4375 14.25 5.125 13.725 5.3875 13H11.75C12.7563 13 14.25 12.3313 14.25 10.5V9.875C14.25 8.04375 12.7563 7.375 11.75 7.375ZM12.375 3C12.5408 3 12.6997 3.06585 12.8169 3.18306C12.9342 3.30027 13 3.45924 13 3.625C13 3.79076 12.9342 3.94973 12.8169 4.06694C12.6997 4.18415 12.5408 4.25 12.375 4.25C12.2092 4.25 12.0503 4.18415 11.9331 4.06694C11.8158 3.94973 11.75 3.79076 11.75 3.625C11.75 3.45924 11.8158 3.30027 11.9331 3.18306C12.0503 3.06585 12.2092 3 12.375 3ZM3.625 13C3.45924 13 3.30027 12.9342 3.18306 12.8169C3.06585 12.6997 3 12.5408 3 12.375C3 12.2092 3.06585 12.0503 3.18306 11.9331C3.30027 11.8158 3.45924 11.75 3.625 11.75C3.79076 11.75 3.94973 11.8158 4.06694 11.9331C4.18415 12.0503 4.25 12.2092 4.25 12.375C4.25 12.5408 4.18415 12.6997 4.06694 12.8169C3.94973 12.9342 3.79076 13 3.625 13Z" fill="#627EEA"/>
</g>
</svg>
