<svg width="101" height="12" viewBox="0 0 101 12" fill="none" xmlns="http://www.w3.org/2000/svg">
<path d="M3.85246 12C2.94133 12 2.22912 11.8717 1.7158 11.615C1.20249 11.3584 0.843175 10.9734 0.637851 10.4601C0.432526 9.94676 0.329864 9.31153 0.329864 8.5544V4.26183C0.329864 3.02989 0.605769 2.12518 1.15758 1.5477C1.70939 0.957392 2.60768 0.662238 3.85246 0.662238H9.64646C10.5319 0.662238 11.2056 0.713569 11.6676 0.816231C12.1424 0.906061 12.3798 1.00231 12.3798 1.10497L11.9949 2.70265C11.7767 2.66415 11.1286 2.62565 10.0507 2.58716C8.98557 2.53582 7.43281 2.51016 5.3924 2.51016H4.41069C3.38407 2.51016 2.87075 2.96572 2.87075 3.87685V8.78539C2.87075 9.2217 2.97983 9.56177 3.19799 9.80559C3.42898 10.0366 3.83321 10.1521 4.41069 10.1521H5.1999C6.43185 10.1521 7.47131 10.1457 8.31827 10.1328C9.16523 10.1072 9.86462 10.0879 10.4164 10.0751V7.4572L9.26148 7.47644L6.73984 7.66894V5.78252H12.9381V11.1915L13.1306 11.5958C13.1306 11.6984 12.8611 11.7947 12.3221 11.8845C11.7831 11.9615 10.872 12 9.58871 12H3.85246ZM15.8239 12L16.0164 10.4601V0.681488H18.5573V10.1521H26.5265L27.2964 11.7883C27.2964 11.8396 27.1232 11.8909 26.7767 11.9423C26.4302 11.9808 25.8335 12 24.9865 12H15.8239ZM32.3503 12C31.452 12 30.7462 11.8717 30.2328 11.615C29.7195 11.3584 29.3538 10.9734 29.1356 10.4601C28.9303 9.94676 28.8277 9.31153 28.8277 8.5544V4.10784C28.8277 3.36354 28.9303 2.74115 29.1356 2.24067C29.341 1.72736 29.7003 1.34238 30.2136 1.08572C30.7269 0.816232 31.4391 0.681488 32.3503 0.681488H37.971C38.8693 0.681488 39.5687 0.816232 40.0692 1.08572C40.5825 1.34238 40.9418 1.72736 41.1471 2.24067C41.3653 2.74115 41.4744 3.36354 41.4744 4.10784V8.5544C41.4744 9.68368 41.2241 10.5435 40.7236 11.1338C40.2232 11.7113 39.3056 12 37.971 12H32.3503ZM32.9085 10.1521H37.432C37.9069 10.1521 38.2726 10.0302 38.5292 9.78635C38.7987 9.54252 38.9335 9.20887 38.9335 8.78539V3.87685C38.9335 3.5047 38.7987 3.1903 38.5292 2.93364C38.2598 2.66415 37.894 2.52941 37.432 2.52941H32.9085C32.4465 2.52941 32.0744 2.65132 31.792 2.89514C31.5097 3.13896 31.3685 3.4662 31.3685 3.87685V8.78539C31.3685 9.2217 31.5033 9.56177 31.7728 9.80559C32.0551 10.0366 32.4337 10.1521 32.9085 10.1521ZM44.3593 12V0.662238H52.7327C53.939 0.662238 54.8181 0.906061 55.3699 1.39371C55.9217 1.86852 56.1976 2.44599 56.1976 3.12613V3.70361C56.1976 4.22975 56.0821 4.66607 55.8511 5.01255C55.6329 5.3462 55.3955 5.58361 55.1389 5.72477C55.7035 5.90443 56.1527 6.21883 56.4863 6.66798C56.82 7.10429 56.9868 7.68177 56.9868 8.40041V8.74689C56.9868 9.13187 56.9419 9.51686 56.852 9.90184C56.7622 10.2868 56.589 10.6397 56.3323 10.9605C56.0885 11.2685 55.7356 11.5188 55.2736 11.7113C54.8245 11.9038 54.2342 12 53.5027 12H44.3593ZM46.9002 5.20504H52.3285C52.7776 5.21788 53.1113 5.1088 53.3294 4.87781C53.5476 4.63398 53.6567 4.33241 53.6567 3.9731V3.7806C53.6567 3.48545 53.554 3.20313 53.3487 2.93364C53.1434 2.65132 52.7584 2.51016 52.1937 2.51016H46.9002V5.20504ZM46.9002 10.1521H52.9637C53.4514 10.1521 53.8171 10.0302 54.0609 9.78635C54.3176 9.54252 54.4459 9.20887 54.4459 8.78539V8.4389C54.4459 8.04109 54.2983 7.72027 54.0032 7.47644C53.708 7.21979 53.2204 7.09146 52.5402 7.09146H46.9002V10.1521ZM63.5488 12L63.5296 2.51016H58.5248V0.662238H71.1137V2.51016H66.0897V12H63.5488ZM73.0451 12V0.681488H85.0181V2.52941H75.586V5.18579H82.7852V7.09146H75.586V10.1521H85.0951L85.8651 11.7883C85.8651 11.8396 85.6918 11.8909 85.3453 11.9423C84.9988 11.9808 84.4021 12 83.5552 12H73.0451Z" fill="#4062FF"/>
<path d="M86.4353 12L87.1668 10.845L91.4401 6.34074L86.4353 0.681488H89.5152L93.2303 4.93555H93.442L97.1763 0.681488H100.256L99.5055 1.81719L95.2514 6.34074L100.256 12H97.1763L93.442 7.70743H93.2303L89.5152 12H86.4353Z" fill="#38C49A"/>
</svg>
