<svg width="24" height="23" viewBox="0 0 24 23" fill="none" xmlns="http://www.w3.org/2000/svg">
<g id="Group 22">
<path id="Vector" d="M0.700195 11.5001C0.700195 6.15956 0.700195 3.48931 2.35928 1.83023C4.01836 0.171143 6.68862 0.171143 12.0291 0.171143C17.3697 0.171143 20.0399 0.171143 21.699 1.83023C23.3581 3.48931 23.3581 6.15956 23.3581 11.5001C23.3581 16.8406 23.3581 19.5108 21.699 21.17C20.0399 22.829 17.3697 22.829 12.0291 22.829C6.68862 22.829 4.01836 22.829 2.35928 21.17C0.700195 19.5108 0.700195 16.8406 0.700195 11.5001Z" fill="#243A5A"/>
<path id="Vector_2" d="M14.2952 14.8987C14.6081 14.8987 14.8674 15.1548 14.8052 15.4614C14.6954 16.0029 14.4286 16.5048 14.0321 16.9014C13.501 17.4325 12.7806 17.7309 12.0294 17.7309C11.2783 17.7309 10.5579 17.4325 10.0268 16.9014C9.63024 16.5048 9.36344 16.0029 9.25367 15.4614C9.19147 15.1548 9.45079 14.8987 9.76364 14.8987H14.2952Z" fill="#38C49A"/>
<path id="Vector_3" d="M15.4854 10.2405C15.1832 10.3215 14.9982 10.6376 15.1514 10.9104C15.3127 11.1974 15.5357 11.448 15.8071 11.6424C16.2332 11.9478 16.7519 12.0959 17.2751 12.0616C17.7981 12.0273 18.2931 11.8128 18.6757 11.4544C19.0583 11.0961 19.3048 10.6162 19.3732 10.0964C19.4417 9.57673 19.3278 9.04936 19.051 8.60419C18.7742 8.15908 18.3515 7.82369 17.8552 7.65517C17.3588 7.48665 16.8194 7.49549 16.3288 7.68015C16.0163 7.79774 15.736 7.98201 15.5059 8.21754C15.2873 8.44134 15.3843 8.79463 15.6552 8.95103L15.9425 9.11694C16.3796 9.36929 16.2934 10.024 15.8059 10.1547L15.4854 10.2405Z" fill="#38C49A"/>
<path id="Vector_4" d="M8.57224 10.2405C8.87444 10.3215 9.0595 10.6376 8.90628 10.9104C8.74501 11.1974 8.52194 11.448 8.25061 11.6424C7.82453 11.9478 7.30572 12.0959 6.78267 12.0616C6.25956 12.0273 5.76455 11.8128 5.38196 11.4544C4.99936 11.0961 4.75285 10.6162 4.68443 10.0964C4.61601 9.57673 4.7299 9.04936 5.00672 8.60419C5.28353 8.15908 5.70613 7.82369 6.20252 7.65517C6.69889 7.48665 7.23837 7.49549 7.72897 7.68015C8.04137 7.79774 8.3217 7.98201 8.55179 8.21754C8.77038 8.44134 8.67341 8.79463 8.40248 8.95103L8.11512 9.11694C7.67811 9.36929 7.76432 10.024 8.25175 10.1547L8.57224 10.2405Z" fill="#38C49A"/>
</g>
</svg>
